<mxfile host="app.diagrams.net" agent="Mozilla/5.0 (Windows NT 10.0; Win64; x64; rv:136.0) Gecko/20100101 Firefox/136.0" version="26.1.1">
  <diagram name="Page-1" id="gmYhZgUs5iD5eJfG_b85">
    <mxGraphModel dx="1756" dy="385" grid="1" gridSize="10" guides="1" tooltips="1" connect="1" arrows="1" fold="1" page="1" pageScale="1" pageWidth="850" pageHeight="1100" math="0" shadow="0">
      <root>
        <mxCell id="0" />
        <mxCell id="1" parent="0" />
        <mxCell id="PnlVqJtPfhtR3vDDbLsD-97" value="" style="swimlane;childLayout=stackLayout;horizontal=1;startSize=0;horizontalStack=0;rounded=0;fontSize=14;fontStyle=0;strokeWidth=1;resizeParent=0;resizeLast=1;shadow=0;dashed=0;align=center;arcSize=4;whiteSpace=wrap;html=1;labelBackgroundColor=none;" parent="1" vertex="1">
          <mxGeometry x="210" y="260" width="160" height="130" as="geometry" />
        </mxCell>
        <mxCell id="RgGpu6aQiDU8sXOfKO7h-6" value="&lt;span style=&quot;font-size: 14px;&quot;&gt;Quests&lt;/span&gt;" style="shape=ext;margin=3;double=1;whiteSpace=wrap;html=1;align=center;labelBackgroundColor=none;" parent="PnlVqJtPfhtR3vDDbLsD-97" vertex="1">
          <mxGeometry width="160" height="40" as="geometry" />
        </mxCell>
        <mxCell id="T0GjzuPxUQXK1XWp5vqH-103" value="" style="endArrow=none;html=1;rounded=0;labelBackgroundColor=none;fontColor=default;" parent="PnlVqJtPfhtR3vDDbLsD-97" edge="1">
          <mxGeometry width="50" height="50" relative="1" as="geometry">
            <mxPoint x="160" y="100" as="sourcePoint" />
            <mxPoint y="100" as="targetPoint" />
          </mxGeometry>
        </mxCell>
        <mxCell id="5OklQFgsDR4nSBkf5qA2-148" value="" style="endArrow=none;dashed=1;html=1;rounded=0;" parent="PnlVqJtPfhtR3vDDbLsD-97" edge="1">
          <mxGeometry width="50" height="50" relative="1" as="geometry">
            <mxPoint x="76" y="60.72000000000003" as="sourcePoint" />
            <mxPoint x="6" y="61" as="targetPoint" />
          </mxGeometry>
        </mxCell>
        <mxCell id="PnlVqJtPfhtR3vDDbLsD-98" value="QuestName&lt;br&gt;&lt;div&gt;Description&lt;/div&gt;&lt;div&gt;Difficulty&lt;/div&gt;&lt;div&gt;&lt;br&gt;&lt;/div&gt;&lt;div&gt;ðŸ”‘ (Name,&amp;nbsp; Quest&lt;span style=&quot;background-color: transparent; color: light-dark(rgb(0, 0, 0), rgb(255, 255, 255));&quot;&gt;Name)&lt;/span&gt;&lt;/div&gt;" style="align=left;strokeColor=none;fillColor=none;spacingLeft=4;fontSize=12;verticalAlign=top;resizable=0;rotatable=0;part=1;html=1;labelBackgroundColor=none;" parent="PnlVqJtPfhtR3vDDbLsD-97" vertex="1">
          <mxGeometry y="40" width="160" height="90" as="geometry" />
        </mxCell>
        <mxCell id="PnlVqJtPfhtR3vDDbLsD-72" value="Players" style="swimlane;childLayout=stackLayout;horizontal=1;startSize=40;horizontalStack=0;rounded=0;fontSize=14;fontStyle=0;strokeWidth=1;resizeParent=0;resizeLast=1;shadow=0;dashed=0;align=center;arcSize=4;whiteSpace=wrap;html=1;labelBackgroundColor=none;" parent="1" vertex="1">
          <mxGeometry x="-780" y="47.5" width="120" height="145" as="geometry" />
        </mxCell>
        <mxCell id="PnlVqJtPfhtR3vDDbLsD-73" value="&lt;u&gt;ID&lt;/u&gt;&lt;div&gt;Name&lt;/div&gt;&lt;div&gt;State&lt;/div&gt;&lt;div&gt;&amp;nbsp;&amp;nbsp;&amp;nbsp; Level&lt;br&gt;&lt;/div&gt;&lt;div&gt;&amp;nbsp;&amp;nbsp;&amp;nbsp; XP&lt;/div&gt;&lt;div&gt;&amp;nbsp;&amp;nbsp;&amp;nbsp; M&lt;span style=&quot;background-color: transparent; color: light-dark(rgb(0, 0, 0), rgb(255, 255, 255));&quot;&gt;oney&lt;/span&gt;&lt;/div&gt;&lt;div&gt;&lt;br&gt;&lt;/div&gt;" style="align=left;strokeColor=none;fillColor=none;spacingLeft=4;fontSize=12;verticalAlign=top;resizable=0;rotatable=0;part=1;html=1;labelBackgroundColor=none;" parent="PnlVqJtPfhtR3vDDbLsD-72" vertex="1">
          <mxGeometry y="40" width="120" height="105" as="geometry" />
        </mxCell>
        <mxCell id="PnlVqJtPfhtR3vDDbLsD-74" value="" style="swimlane;childLayout=stackLayout;horizontal=1;startSize=0;horizontalStack=0;rounded=1;fontSize=14;fontStyle=0;strokeWidth=1;resizeParent=0;resizeLast=1;shadow=0;dashed=0;align=center;arcSize=4;whiteSpace=wrap;html=1;labelBackgroundColor=none;" parent="1" vertex="1">
          <mxGeometry x="-180" y="20" width="160" height="190" as="geometry">
            <mxRectangle x="-180" y="40" width="130" height="50" as="alternateBounds" />
          </mxGeometry>
        </mxCell>
        <mxCell id="T0GjzuPxUQXK1XWp5vqH-15" value="Characters" style="shape=ext;margin=3;double=1;whiteSpace=wrap;html=1;align=center;strokeWidth=1;labelBackgroundColor=none;" parent="PnlVqJtPfhtR3vDDbLsD-74" vertex="1">
          <mxGeometry width="160" height="40" as="geometry" />
        </mxCell>
        <mxCell id="5OklQFgsDR4nSBkf5qA2-137" value="" style="endArrow=none;dashed=1;html=1;rounded=0;" parent="PnlVqJtPfhtR3vDDbLsD-74" edge="1">
          <mxGeometry width="50" height="50" relative="1" as="geometry">
            <mxPoint x="10" y="60" as="sourcePoint" />
            <mxPoint x="40" y="60" as="targetPoint" />
          </mxGeometry>
        </mxCell>
        <mxCell id="PnlVqJtPfhtR3vDDbLsD-75" value="&lt;div&gt;&lt;span&gt;Name&lt;/span&gt;&lt;/div&gt;Strength&lt;div&gt;Agility&lt;/div&gt;&lt;div&gt;Intelligence&lt;/div&gt;&lt;div&gt;Health&lt;/div&gt;&lt;div&gt;Mana&lt;/div&gt;&lt;div&gt;Class&lt;/div&gt;&lt;div&gt;&lt;br&gt;&lt;/div&gt;&lt;div&gt;ðŸ”‘ (ID, Name)&lt;/div&gt;" style="align=left;strokeColor=none;fillColor=none;spacingLeft=4;fontSize=12;verticalAlign=top;resizable=0;rotatable=0;part=1;html=1;labelBackgroundColor=none;" parent="PnlVqJtPfhtR3vDDbLsD-74" vertex="1">
          <mxGeometry y="40" width="160" height="150" as="geometry" />
        </mxCell>
        <mxCell id="T0GjzuPxUQXK1XWp5vqH-31" value="" style="endArrow=none;html=1;rounded=0;labelBackgroundColor=none;fontColor=default;" parent="PnlVqJtPfhtR3vDDbLsD-74" edge="1">
          <mxGeometry width="50" height="50" relative="1" as="geometry">
            <mxPoint x="160" y="150" as="sourcePoint" />
            <mxPoint y="150" as="targetPoint" />
          </mxGeometry>
        </mxCell>
        <mxCell id="PnlVqJtPfhtR3vDDbLsD-76" value="Items" style="swimlane;childLayout=stackLayout;horizontal=1;startSize=40;horizontalStack=0;rounded=0;fontSize=14;fontStyle=0;strokeWidth=1;resizeParent=0;resizeLast=1;shadow=0;dashed=0;align=center;arcSize=4;whiteSpace=wrap;html=1;labelBackgroundColor=none;" parent="1" vertex="1">
          <mxGeometry x="37.74" y="940" width="160" height="90" as="geometry" />
        </mxCell>
        <mxCell id="PnlVqJtPfhtR3vDDbLsD-77" value="&lt;u&gt;ID&lt;/u&gt;&lt;div&gt;Price&lt;/div&gt;&lt;div&gt;&lt;br&gt;&lt;/div&gt;" style="align=left;strokeColor=none;fillColor=none;spacingLeft=4;fontSize=12;verticalAlign=top;resizable=0;rotatable=0;part=1;html=1;labelBackgroundColor=none;" parent="PnlVqJtPfhtR3vDDbLsD-76" vertex="1">
          <mxGeometry y="40" width="160" height="50" as="geometry" />
        </mxCell>
        <mxCell id="PnlVqJtPfhtR3vDDbLsD-78" value="Weapons" style="swimlane;childLayout=stackLayout;horizontal=1;startSize=50;horizontalStack=0;rounded=0;fontSize=14;fontStyle=0;strokeWidth=1;resizeParent=0;resizeLast=1;shadow=0;dashed=0;align=center;arcSize=4;whiteSpace=wrap;html=1;labelBackgroundColor=none;" parent="1" vertex="1">
          <mxGeometry x="-327.26" y="1210" width="160" height="90" as="geometry" />
        </mxCell>
        <mxCell id="PnlVqJtPfhtR3vDDbLsD-79" value="Power" style="align=left;strokeColor=none;fillColor=none;spacingLeft=4;fontSize=12;verticalAlign=top;resizable=0;rotatable=0;part=1;html=1;labelBackgroundColor=none;" parent="PnlVqJtPfhtR3vDDbLsD-78" vertex="1">
          <mxGeometry y="50" width="160" height="40" as="geometry" />
        </mxCell>
        <mxCell id="PnlVqJtPfhtR3vDDbLsD-80" value="Armors" style="swimlane;childLayout=stackLayout;horizontal=1;startSize=50;horizontalStack=0;rounded=0;fontSize=14;fontStyle=0;strokeWidth=1;resizeParent=0;resizeLast=1;shadow=0;dashed=0;align=center;arcSize=4;whiteSpace=wrap;html=1;labelBackgroundColor=none;" parent="1" vertex="1">
          <mxGeometry x="-87.26" y="1210" width="160" height="90" as="geometry" />
        </mxCell>
        <mxCell id="PnlVqJtPfhtR3vDDbLsD-81" value="Defence" style="align=left;strokeColor=none;fillColor=none;spacingLeft=4;fontSize=12;verticalAlign=top;resizable=0;rotatable=0;part=1;html=1;labelBackgroundColor=none;" parent="PnlVqJtPfhtR3vDDbLsD-80" vertex="1">
          <mxGeometry y="50" width="160" height="40" as="geometry" />
        </mxCell>
        <mxCell id="PnlVqJtPfhtR3vDDbLsD-82" value="Potions" style="swimlane;childLayout=stackLayout;horizontal=1;startSize=50;horizontalStack=0;rounded=0;fontSize=14;fontStyle=0;strokeWidth=1;resizeParent=0;resizeLast=1;shadow=0;dashed=0;align=center;arcSize=4;whiteSpace=wrap;html=1;labelBackgroundColor=none;" parent="1" vertex="1">
          <mxGeometry x="152.74" y="1210" width="160" height="90" as="geometry" />
        </mxCell>
        <mxCell id="PnlVqJtPfhtR3vDDbLsD-83" value="&lt;div&gt;HealthGain&lt;/div&gt;" style="align=left;strokeColor=none;fillColor=none;spacingLeft=4;fontSize=12;verticalAlign=top;resizable=0;rotatable=0;part=1;html=1;labelBackgroundColor=none;" parent="PnlVqJtPfhtR3vDDbLsD-82" vertex="1">
          <mxGeometry y="50" width="160" height="40" as="geometry" />
        </mxCell>
        <mxCell id="PnlVqJtPfhtR3vDDbLsD-84" value="Artefacts" style="swimlane;childLayout=stackLayout;horizontal=1;startSize=50;horizontalStack=0;rounded=0;fontSize=14;fontStyle=0;strokeWidth=1;resizeParent=0;resizeLast=1;shadow=0;dashed=0;align=center;arcSize=4;whiteSpace=wrap;html=1;labelBackgroundColor=none;" parent="1" vertex="1">
          <mxGeometry x="392.74" y="1210" width="160" height="90" as="geometry" />
        </mxCell>
        <mxCell id="PnlVqJtPfhtR3vDDbLsD-85" value="Effect" style="align=left;strokeColor=none;fillColor=none;spacingLeft=4;fontSize=12;verticalAlign=top;resizable=0;rotatable=0;part=1;html=1;labelBackgroundColor=none;" parent="PnlVqJtPfhtR3vDDbLsD-84" vertex="1">
          <mxGeometry y="50" width="160" height="40" as="geometry" />
        </mxCell>
        <mxCell id="PnlVqJtPfhtR3vDDbLsD-86" value="" style="endArrow=none;html=1;rounded=0;exitX=0.5;exitY=0;exitDx=0;exitDy=0;labelBackgroundColor=none;fontColor=default;" parent="1" source="PnlVqJtPfhtR3vDDbLsD-80" edge="1">
          <mxGeometry width="50" height="50" relative="1" as="geometry">
            <mxPoint x="-47.26" y="1190" as="sourcePoint" />
            <mxPoint x="-7.26" y="1170" as="targetPoint" />
          </mxGeometry>
        </mxCell>
        <mxCell id="PnlVqJtPfhtR3vDDbLsD-87" value="" style="endArrow=none;html=1;rounded=0;exitX=0.5;exitY=0;exitDx=0;exitDy=0;labelBackgroundColor=none;fontColor=default;" parent="1" source="PnlVqJtPfhtR3vDDbLsD-82" edge="1">
          <mxGeometry width="50" height="50" relative="1" as="geometry">
            <mxPoint x="212.74" y="1130" as="sourcePoint" />
            <mxPoint x="232.74" y="1170" as="targetPoint" />
          </mxGeometry>
        </mxCell>
        <mxCell id="PnlVqJtPfhtR3vDDbLsD-88" value="" style="endArrow=none;html=1;rounded=0;exitX=0.5;exitY=0;exitDx=0;exitDy=0;labelBackgroundColor=none;fontColor=default;" parent="1" source="PnlVqJtPfhtR3vDDbLsD-84" edge="1">
          <mxGeometry width="50" height="50" relative="1" as="geometry">
            <mxPoint x="212.74" y="1130" as="sourcePoint" />
            <mxPoint x="472.74" y="1170" as="targetPoint" />
          </mxGeometry>
        </mxCell>
        <mxCell id="PnlVqJtPfhtR3vDDbLsD-89" value="" style="endArrow=none;html=1;rounded=0;exitX=0.5;exitY=0;exitDx=0;exitDy=0;labelBackgroundColor=none;fontColor=default;" parent="1" source="PnlVqJtPfhtR3vDDbLsD-78" edge="1">
          <mxGeometry width="50" height="50" relative="1" as="geometry">
            <mxPoint x="212.74" y="1130" as="sourcePoint" />
            <mxPoint x="-247.26" y="1170" as="targetPoint" />
          </mxGeometry>
        </mxCell>
        <mxCell id="PnlVqJtPfhtR3vDDbLsD-90" value="" style="endArrow=none;html=1;rounded=0;labelBackgroundColor=none;fontColor=default;" parent="1" edge="1">
          <mxGeometry width="50" height="50" relative="1" as="geometry">
            <mxPoint x="-247.26" y="1170" as="sourcePoint" />
            <mxPoint x="472.74" y="1170" as="targetPoint" />
          </mxGeometry>
        </mxCell>
        <mxCell id="PnlVqJtPfhtR3vDDbLsD-91" value="" style="endArrow=classic;html=1;rounded=0;endFill=1;labelBackgroundColor=none;fontColor=default;entryX=0.5;entryY=1;entryDx=0;entryDy=0;" parent="1" target="PnlVqJtPfhtR3vDDbLsD-77" edge="1">
          <mxGeometry width="50" height="50" relative="1" as="geometry">
            <mxPoint x="117.74" y="1170" as="sourcePoint" />
            <mxPoint x="112.74" y="1070" as="targetPoint" />
          </mxGeometry>
        </mxCell>
        <mxCell id="PnlVqJtPfhtR3vDDbLsD-92" value="(t, e)" style="text;html=1;align=center;verticalAlign=middle;whiteSpace=wrap;rounded=0;labelBackgroundColor=none;" parent="1" vertex="1">
          <mxGeometry x="110" y="1030" width="60" height="30" as="geometry" />
        </mxCell>
        <mxCell id="PnlVqJtPfhtR3vDDbLsD-93" value="&lt;div&gt;Monsters&lt;/div&gt;" style="swimlane;childLayout=stackLayout;horizontal=1;startSize=50;horizontalStack=0;rounded=0;fontSize=14;fontStyle=0;strokeWidth=1;resizeParent=0;resizeLast=1;shadow=0;dashed=0;align=center;arcSize=4;whiteSpace=wrap;html=1;labelBackgroundColor=none;" parent="1" vertex="1">
          <mxGeometry x="617.74" y="775" width="160" height="130" as="geometry" />
        </mxCell>
        <mxCell id="PnlVqJtPfhtR3vDDbLsD-94" value="&lt;div&gt;&lt;u&gt;Name&lt;/u&gt;&lt;/div&gt;Damage&lt;div&gt;MonsterHealth&lt;/div&gt;&lt;div&gt;Defence&lt;/div&gt;" style="align=left;strokeColor=none;fillColor=none;spacingLeft=4;fontSize=12;verticalAlign=top;resizable=0;rotatable=0;part=1;html=1;labelBackgroundColor=none;" parent="PnlVqJtPfhtR3vDDbLsD-93" vertex="1">
          <mxGeometry y="50" width="160" height="80" as="geometry" />
        </mxCell>
        <mxCell id="PnlVqJtPfhtR3vDDbLsD-95" value="" style="swimlane;childLayout=stackLayout;horizontal=1;startSize=0;horizontalStack=0;rounded=0;fontSize=14;fontStyle=0;strokeWidth=1;resizeParent=0;resizeLast=1;shadow=0;dashed=0;align=center;arcSize=4;whiteSpace=wrap;html=1;labelBackgroundColor=none;" parent="1" vertex="1">
          <mxGeometry x="437.74" y="967" width="160" height="116" as="geometry" />
        </mxCell>
        <mxCell id="T0GjzuPxUQXK1XWp5vqH-45" value="&lt;span style=&quot;font-size: 14px;&quot;&gt;Looting Table&lt;/span&gt;" style="shape=ext;margin=3;double=1;whiteSpace=wrap;html=1;align=center;labelBackgroundColor=none;" parent="PnlVqJtPfhtR3vDDbLsD-95" vertex="1">
          <mxGeometry width="160" height="40" as="geometry" />
        </mxCell>
        <mxCell id="PnlVqJtPfhtR3vDDbLsD-96" value="Quantity&lt;div&gt;DropRate&lt;/div&gt;&lt;div&gt;&lt;br&gt;&lt;/div&gt;&lt;div&gt;&lt;div&gt;ðŸ”‘ Name&lt;/div&gt;&lt;div&gt;&lt;br&gt;&lt;/div&gt;&lt;/div&gt;" style="align=left;strokeColor=none;fillColor=none;spacingLeft=4;fontSize=12;verticalAlign=top;resizable=0;rotatable=0;part=1;html=1;strokeWidth=1;labelBackgroundColor=none;" parent="PnlVqJtPfhtR3vDDbLsD-95" vertex="1">
          <mxGeometry y="40" width="160" height="76" as="geometry" />
        </mxCell>
        <mxCell id="T0GjzuPxUQXK1XWp5vqH-49" value="" style="endArrow=none;html=1;rounded=0;exitX=0;exitY=0.5;exitDx=0;exitDy=0;entryX=1;entryY=0.5;entryDx=0;entryDy=0;labelBackgroundColor=none;fontColor=default;" parent="PnlVqJtPfhtR3vDDbLsD-95" edge="1">
          <mxGeometry width="50" height="50" relative="1" as="geometry">
            <mxPoint y="81" as="sourcePoint" />
            <mxPoint x="160" y="81" as="targetPoint" />
          </mxGeometry>
        </mxCell>
        <mxCell id="PnlVqJtPfhtR3vDDbLsD-99" value="&lt;div&gt;Spells&lt;/div&gt;" style="swimlane;childLayout=stackLayout;horizontal=1;startSize=40;horizontalStack=0;rounded=0;fontSize=14;fontStyle=0;strokeWidth=1;resizeParent=0;resizeLast=1;shadow=0;dashed=0;align=center;arcSize=6;whiteSpace=wrap;html=1;labelBackgroundColor=none;" parent="1" vertex="1">
          <mxGeometry x="-410" y="290" width="160" height="120" as="geometry" />
        </mxCell>
        <mxCell id="PnlVqJtPfhtR3vDDbLsD-100" value="&lt;div&gt;&lt;u&gt;Name&lt;/u&gt;&lt;/div&gt;ManaCost&lt;div&gt;ReloadTime&lt;/div&gt;&lt;div&gt;Damage&lt;/div&gt;" style="align=left;strokeColor=none;fillColor=none;spacingLeft=4;fontSize=12;verticalAlign=top;resizable=0;rotatable=0;part=1;html=1;labelBackgroundColor=none;" parent="PnlVqJtPfhtR3vDDbLsD-99" vertex="1">
          <mxGeometry y="40" width="160" height="80" as="geometry" />
        </mxCell>
        <mxCell id="PnlVqJtPfhtR3vDDbLsD-101" value="NPCs" style="swimlane;childLayout=stackLayout;horizontal=1;startSize=30;horizontalStack=0;rounded=0;fontSize=14;fontStyle=0;strokeWidth=1;resizeParent=0;resizeLast=1;shadow=0;dashed=0;align=center;arcSize=4;whiteSpace=wrap;html=1;labelBackgroundColor=none;" parent="1" vertex="1">
          <mxGeometry x="290" y="40" width="160" height="90" as="geometry" />
        </mxCell>
        <mxCell id="PnlVqJtPfhtR3vDDbLsD-102" value="&lt;div&gt;&lt;u&gt;Name&lt;/u&gt;&lt;/div&gt;&lt;div&gt;Dialogues&lt;/div&gt;" style="align=left;strokeColor=none;fillColor=none;spacingLeft=4;fontSize=12;verticalAlign=top;resizable=0;rotatable=0;part=1;html=1;labelBackgroundColor=none;" parent="PnlVqJtPfhtR3vDDbLsD-101" vertex="1">
          <mxGeometry y="30" width="160" height="60" as="geometry" />
        </mxCell>
        <mxCell id="PnlVqJtPfhtR3vDDbLsD-105" value="&lt;div&gt;(1, n)&lt;/div&gt;" style="text;html=1;align=center;verticalAlign=middle;whiteSpace=wrap;rounded=0;labelBackgroundColor=none;" parent="1" vertex="1">
          <mxGeometry x="-660" y="50" width="60" height="30" as="geometry" />
        </mxCell>
        <mxCell id="PnlVqJtPfhtR3vDDbLsD-106" value="(1, 1)" style="text;html=1;align=center;verticalAlign=middle;whiteSpace=wrap;rounded=0;labelBackgroundColor=none;" parent="1" vertex="1">
          <mxGeometry x="-240" y="60" width="60" height="30" as="geometry" />
        </mxCell>
        <mxCell id="PnlVqJtPfhtR3vDDbLsD-112" value="Sells" style="ellipse;whiteSpace=wrap;html=1;align=center;labelBackgroundColor=none;" parent="1" vertex="1">
          <mxGeometry x="337.74" y="890" width="100" height="40" as="geometry" />
        </mxCell>
        <mxCell id="PnlVqJtPfhtR3vDDbLsD-113" value="" style="endArrow=none;html=1;rounded=0;labelBackgroundColor=none;fontColor=default;exitX=0.523;exitY=0;exitDx=0;exitDy=0;exitPerimeter=0;" parent="1" source="PnlVqJtPfhtR3vDDbLsD-112" edge="1">
          <mxGeometry width="50" height="50" relative="1" as="geometry">
            <mxPoint x="390" y="880" as="sourcePoint" />
            <mxPoint x="390" y="130" as="targetPoint" />
          </mxGeometry>
        </mxCell>
        <mxCell id="PnlVqJtPfhtR3vDDbLsD-114" value="" style="endArrow=none;html=1;rounded=0;exitX=0;exitY=0.5;exitDx=0;exitDy=0;labelBackgroundColor=none;fontColor=default;entryX=0.132;entryY=-0.007;entryDx=0;entryDy=0;entryPerimeter=0;" parent="1" source="PnlVqJtPfhtR3vDDbLsD-112" target="PnlVqJtPfhtR3vDDbLsD-117" edge="1">
          <mxGeometry width="50" height="50" relative="1" as="geometry">
            <mxPoint x="-12.26" y="700" as="sourcePoint" />
            <mxPoint x="200" y="910" as="targetPoint" />
          </mxGeometry>
        </mxCell>
        <mxCell id="PnlVqJtPfhtR3vDDbLsD-116" value="(0, n)" style="text;html=1;align=center;verticalAlign=middle;whiteSpace=wrap;rounded=0;labelBackgroundColor=none;" parent="1" vertex="1">
          <mxGeometry x="377.74" y="130" width="60" height="30" as="geometry" />
        </mxCell>
        <mxCell id="PnlVqJtPfhtR3vDDbLsD-117" value="(0, n)" style="text;html=1;align=center;verticalAlign=middle;whiteSpace=wrap;rounded=0;labelBackgroundColor=none;rotation=0;" parent="1" vertex="1">
          <mxGeometry x="190" y="910" width="60" height="30" as="geometry" />
        </mxCell>
        <mxCell id="PnlVqJtPfhtR3vDDbLsD-118" value="Talks to" style="ellipse;whiteSpace=wrap;html=1;align=center;labelBackgroundColor=none;" parent="1" vertex="1">
          <mxGeometry x="100" y="100" width="100" height="40" as="geometry" />
        </mxCell>
        <mxCell id="PnlVqJtPfhtR3vDDbLsD-119" value="" style="endArrow=none;html=1;rounded=0;exitX=1.008;exitY=0.395;exitDx=0;exitDy=0;entryX=0;entryY=0.5;entryDx=0;entryDy=0;exitPerimeter=0;labelBackgroundColor=none;fontColor=default;" parent="1" source="PnlVqJtPfhtR3vDDbLsD-75" target="PnlVqJtPfhtR3vDDbLsD-118" edge="1">
          <mxGeometry width="50" height="50" relative="1" as="geometry">
            <mxPoint x="-10" y="400" as="sourcePoint" />
            <mxPoint x="40" y="350" as="targetPoint" />
          </mxGeometry>
        </mxCell>
        <mxCell id="PnlVqJtPfhtR3vDDbLsD-120" value="" style="endArrow=none;html=1;rounded=0;exitX=1;exitY=0.5;exitDx=0;exitDy=0;labelBackgroundColor=none;fontColor=default;" parent="1" edge="1">
          <mxGeometry width="50" height="50" relative="1" as="geometry">
            <mxPoint x="200" y="119.6" as="sourcePoint" />
            <mxPoint x="290" y="120" as="targetPoint" />
          </mxGeometry>
        </mxCell>
        <mxCell id="PnlVqJtPfhtR3vDDbLsD-121" value="(0, 1)" style="text;html=1;align=center;verticalAlign=middle;whiteSpace=wrap;rounded=0;labelBackgroundColor=none;" parent="1" vertex="1">
          <mxGeometry x="-20" y="90" width="60" height="30" as="geometry" />
        </mxCell>
        <mxCell id="PnlVqJtPfhtR3vDDbLsD-122" value="(0, 1)" style="text;html=1;align=center;verticalAlign=middle;whiteSpace=wrap;rounded=0;labelBackgroundColor=none;" parent="1" vertex="1">
          <mxGeometry x="240" y="90" width="60" height="30" as="geometry" />
        </mxCell>
        <mxCell id="PnlVqJtPfhtR3vDDbLsD-125" value="(0, n)" style="text;html=1;align=center;verticalAlign=middle;whiteSpace=wrap;rounded=0;labelBackgroundColor=none;" parent="1" vertex="1">
          <mxGeometry x="270" y="130" width="60" height="30" as="geometry" />
        </mxCell>
        <mxCell id="PnlVqJtPfhtR3vDDbLsD-128" value="Fights with" style="ellipse;whiteSpace=wrap;html=1;align=center;labelBackgroundColor=none;" parent="1" vertex="1">
          <mxGeometry x="-380" y="170" width="100" height="40" as="geometry" />
        </mxCell>
        <mxCell id="PnlVqJtPfhtR3vDDbLsD-129" value="" style="endArrow=none;html=1;rounded=0;exitX=0.5;exitY=0;exitDx=0;exitDy=0;entryX=0.5;entryY=1;entryDx=0;entryDy=0;labelBackgroundColor=none;fontColor=default;" parent="1" source="PnlVqJtPfhtR3vDDbLsD-99" target="PnlVqJtPfhtR3vDDbLsD-128" edge="1">
          <mxGeometry width="50" height="50" relative="1" as="geometry">
            <mxPoint x="50.48000000000002" y="420" as="sourcePoint" />
            <mxPoint x="100.48000000000002" y="370" as="targetPoint" />
          </mxGeometry>
        </mxCell>
        <mxCell id="PnlVqJtPfhtR3vDDbLsD-132" value="(1, 1)" style="text;html=1;align=center;verticalAlign=middle;whiteSpace=wrap;rounded=0;labelBackgroundColor=none;" parent="1" vertex="1">
          <mxGeometry x="-460.48" y="937" width="60" height="30" as="geometry" />
        </mxCell>
        <mxCell id="PnlVqJtPfhtR3vDDbLsD-133" value="(0, n)" style="text;html=1;align=center;verticalAlign=middle;whiteSpace=wrap;rounded=0;labelBackgroundColor=none;" parent="1" vertex="1">
          <mxGeometry x="-340" y="260" width="60" height="30" as="geometry" />
        </mxCell>
        <mxCell id="PnlVqJtPfhtR3vDDbLsD-135" value="" style="swimlane;childLayout=stackLayout;horizontal=1;startSize=0;horizontalStack=0;rounded=1;fontSize=14;fontStyle=0;strokeWidth=1;resizeParent=0;resizeLast=1;shadow=0;dashed=0;align=center;arcSize=4;whiteSpace=wrap;html=1;labelBackgroundColor=none;" parent="1" vertex="1">
          <mxGeometry x="90" y="550" width="160" height="130" as="geometry" />
        </mxCell>
        <mxCell id="T0GjzuPxUQXK1XWp5vqH-54" value="&lt;span style=&quot;font-size: 14px;&quot;&gt;Rewards&lt;/span&gt;" style="shape=ext;margin=3;double=1;whiteSpace=wrap;html=1;align=center;labelBackgroundColor=none;" parent="PnlVqJtPfhtR3vDDbLsD-135" vertex="1">
          <mxGeometry width="160" height="40" as="geometry" />
        </mxCell>
        <mxCell id="PnlVqJtPfhtR3vDDbLsD-136" value="&lt;div&gt;Gold&lt;/div&gt;&lt;div&gt;XP&lt;/div&gt;&lt;div&gt;&lt;br&gt;&lt;/div&gt;&lt;div&gt;&lt;br&gt;&lt;/div&gt;&lt;div&gt;ðŸ”‘ (Name,&amp;nbsp; Quest&lt;span style=&quot;color: light-dark(rgb(0, 0, 0), rgb(255, 255, 255)); background-color: transparent;&quot;&gt;Name)&lt;/span&gt;&lt;/div&gt;" style="align=left;strokeColor=none;fillColor=none;spacingLeft=4;fontSize=12;verticalAlign=top;resizable=0;rotatable=0;part=1;html=1;labelBackgroundColor=none;" parent="PnlVqJtPfhtR3vDDbLsD-135" vertex="1">
          <mxGeometry y="40" width="160" height="90" as="geometry" />
        </mxCell>
        <mxCell id="T0GjzuPxUQXK1XWp5vqH-104" value="" style="endArrow=none;html=1;rounded=0;labelBackgroundColor=none;fontColor=default;" parent="PnlVqJtPfhtR3vDDbLsD-135" edge="1">
          <mxGeometry width="50" height="50" relative="1" as="geometry">
            <mxPoint x="160" y="100" as="sourcePoint" />
            <mxPoint y="100" as="targetPoint" />
          </mxGeometry>
        </mxCell>
        <mxCell id="PnlVqJtPfhtR3vDDbLsD-137" value="Gives" style="ellipse;whiteSpace=wrap;html=1;align=center;labelBackgroundColor=none;" parent="1" vertex="1">
          <mxGeometry x="97.74000000000001" y="740" width="100" height="40" as="geometry" />
        </mxCell>
        <mxCell id="PnlVqJtPfhtR3vDDbLsD-140" value="" style="endArrow=none;html=1;rounded=0;labelBackgroundColor=none;fontColor=default;" parent="1" edge="1">
          <mxGeometry width="50" height="50" relative="1" as="geometry">
            <mxPoint x="147.74" y="810" as="sourcePoint" />
            <mxPoint x="147.74" y="780" as="targetPoint" />
          </mxGeometry>
        </mxCell>
        <mxCell id="PnlVqJtPfhtR3vDDbLsD-141" value="(0, n)" style="text;html=1;align=center;verticalAlign=middle;whiteSpace=wrap;rounded=0;labelBackgroundColor=none;" parent="1" vertex="1">
          <mxGeometry x="92.74000000000001" y="910" width="60" height="30" as="geometry" />
        </mxCell>
        <mxCell id="PnlVqJtPfhtR3vDDbLsD-142" value="(0, n)" style="text;html=1;align=center;verticalAlign=middle;whiteSpace=wrap;rounded=0;labelBackgroundColor=none;" parent="1" vertex="1">
          <mxGeometry x="137.74" y="680" width="60" height="30" as="geometry" />
        </mxCell>
        <mxCell id="T0GjzuPxUQXK1XWp5vqH-6" value="Stuff" style="swimlane;childLayout=stackLayout;horizontal=1;startSize=50;horizontalStack=0;rounded=1;fontSize=14;fontStyle=0;strokeWidth=2;resizeParent=0;resizeLast=1;shadow=0;dashed=0;align=center;arcSize=4;whiteSpace=wrap;html=1;labelBackgroundColor=none;" parent="1" vertex="1">
          <mxGeometry x="1000" y="40" width="480" height="820" as="geometry" />
        </mxCell>
        <mxCell id="T0GjzuPxUQXK1XWp5vqH-7" value="## Character: Name&lt;br&gt;&lt;br&gt;Pourquoi ajouter un nom au Character ? &lt;br&gt;&lt;br&gt;Parce que si un Player crÃ©er 2 personnages, il faut diffÃ©rencier ces 2 personnages a l&#39;aide d&#39;une clÃ©. Nous ne pouvons pas utiliser les attributs comme Strength, Agility etc. pour cela car ces attributs ne sont pas uniques pour chaque Character.&lt;br&gt;&lt;br&gt;&lt;div&gt;Contrainte:&lt;/div&gt;&lt;div&gt;&lt;br&gt;&lt;/div&gt;&lt;div&gt;On ne peut avoir qu&#39;un seul perso avec chaque nom.&lt;/div&gt;&lt;div&gt;&lt;br&gt;&lt;/div&gt;&lt;div&gt;Tous les mobs ont une LootingTable, cette LootingTable peut ne pas contenir d&#39;objet -&amp;gt; les monstres peuvent ne pas drop de loot.&lt;/div&gt;&lt;br&gt;&lt;br&gt;&lt;div&gt;## Spells&lt;/div&gt;&lt;div&gt;&lt;br&gt;&lt;/div&gt;&lt;div&gt;Les Spells peuvent exister sans Ãªtre acquis par un Character&lt;/div&gt;&lt;div&gt;&lt;br&gt;&lt;/div&gt;&lt;div&gt;## Inventory&lt;/div&gt;&lt;div&gt;&lt;br&gt;&lt;/div&gt;&lt;div&gt;Contrainte de niveau: m est liÃ© au niveau du Character&lt;/div&gt;&lt;div&gt;&lt;br&gt;&lt;/div&gt;&lt;div&gt;&lt;div&gt;&lt;br&gt;&lt;/div&gt;&lt;div&gt;Un joueur peut collecter un objet si son inventaire n&#39;est pas plein&lt;/div&gt;&lt;div&gt;&lt;br&gt;&lt;/div&gt;&lt;div&gt;Un joueur peut utiliser/jeter/vendre un objet si celui-ci est prÃ©sent dans son inventaire&lt;/div&gt;&lt;div&gt;&lt;br&gt;&lt;/div&gt;&lt;div&gt;0 &amp;lt;= Intelligence &amp;lt;= 100&lt;/div&gt;&lt;div&gt;0 &amp;lt; Health &amp;lt;= 100&lt;/div&gt;&lt;div&gt;0 &amp;lt;= Damage&lt;/div&gt;&lt;div&gt;0 &amp;lt;= Defense &amp;lt;= 100&lt;/div&gt;&lt;div&gt;0% &amp;lt; Drop-rate &amp;lt;= 100%&lt;/div&gt;&lt;div&gt;0 &amp;lt; Quantity&lt;/div&gt;&lt;div&gt;0 &amp;lt; Price&lt;/div&gt;&lt;div&gt;0 &amp;lt;= Money&lt;/div&gt;&lt;div&gt;0 &amp;lt; Price&lt;/div&gt;&lt;div&gt;0 &amp;lt; Healthpoint &amp;lt;= 100&lt;/div&gt;&lt;div&gt;0 &amp;lt; Mana cost&lt;/div&gt;&lt;div&gt;0s &amp;lt; Reload time&lt;/div&gt;&lt;div&gt;0 &amp;lt;= XP&lt;/div&gt;&lt;div&gt;0 &amp;lt;= Level&lt;/div&gt;&lt;div&gt;&lt;br&gt;&lt;/div&gt;&lt;/div&gt;" style="align=left;strokeColor=none;fillColor=none;spacingLeft=4;spacingRight=4;fontSize=12;verticalAlign=top;resizable=0;rotatable=0;part=1;html=1;whiteSpace=wrap;labelBackgroundColor=none;" parent="T0GjzuPxUQXK1XWp5vqH-6" vertex="1">
          <mxGeometry y="50" width="480" height="770" as="geometry" />
        </mxCell>
        <mxCell id="T0GjzuPxUQXK1XWp5vqH-16" value="" style="shape=link;html=1;rounded=0;entryX=1;entryY=1;entryDx=0;entryDy=0;strokeWidth=1;labelBackgroundColor=none;fontColor=default;" parent="1" target="PnlVqJtPfhtR3vDDbLsD-106" edge="1">
          <mxGeometry relative="1" as="geometry">
            <mxPoint x="-380.48" y="89.66" as="sourcePoint" />
            <mxPoint x="-220.48" y="89.66" as="targetPoint" />
          </mxGeometry>
        </mxCell>
        <mxCell id="T0GjzuPxUQXK1XWp5vqH-17" value="" style="resizable=0;html=1;whiteSpace=wrap;align=right;verticalAlign=bottom;labelBackgroundColor=none;" parent="T0GjzuPxUQXK1XWp5vqH-16" connectable="0" vertex="1">
          <mxGeometry x="1" relative="1" as="geometry" />
        </mxCell>
        <mxCell id="T0GjzuPxUQXK1XWp5vqH-18" value="Creates" style="ellipse;shape=doubleEllipse;margin=3;whiteSpace=wrap;html=1;align=center;strokeWidth=1;labelBackgroundColor=none;" parent="1" vertex="1">
          <mxGeometry x="-480.48" y="70" width="100" height="40" as="geometry" />
        </mxCell>
        <mxCell id="hF-KjkAvDpBelAWugECg-43" value="" style="shape=link;html=1;rounded=0;exitX=0.012;exitY=0.427;exitDx=0;exitDy=0;exitPerimeter=0;labelBackgroundColor=none;fontColor=default;entryX=0.996;entryY=0.192;entryDx=0;entryDy=0;entryPerimeter=0;" parent="1" source="T0GjzuPxUQXK1XWp5vqH-47" target="PnlVqJtPfhtR3vDDbLsD-96" edge="1">
          <mxGeometry width="100" relative="1" as="geometry">
            <mxPoint x="641.78" y="1022.1999999999998" as="sourcePoint" />
            <mxPoint x="591.78" y="1022" as="targetPoint" />
          </mxGeometry>
        </mxCell>
        <mxCell id="T0GjzuPxUQXK1XWp5vqH-47" value="Has" style="ellipse;shape=doubleEllipse;margin=3;whiteSpace=wrap;html=1;align=center;labelBackgroundColor=none;" parent="1" vertex="1">
          <mxGeometry x="642.26" y="1005" width="100" height="40" as="geometry" />
        </mxCell>
        <mxCell id="T0GjzuPxUQXK1XWp5vqH-50" value="(1, 1)" style="text;html=1;align=center;verticalAlign=middle;whiteSpace=wrap;rounded=0;labelBackgroundColor=none;" parent="1" vertex="1">
          <mxGeometry x="687.74" y="905" width="60" height="30" as="geometry" />
        </mxCell>
        <mxCell id="T0GjzuPxUQXK1XWp5vqH-51" value="(1, 1)" style="text;html=1;align=center;verticalAlign=middle;whiteSpace=wrap;rounded=0;labelBackgroundColor=none;" parent="1" vertex="1">
          <mxGeometry x="597.74" y="990.5" width="60" height="30" as="geometry" />
        </mxCell>
        <mxCell id="T0GjzuPxUQXK1XWp5vqH-52" value="(0, n)" style="text;html=1;align=center;verticalAlign=middle;whiteSpace=wrap;rounded=0;labelBackgroundColor=none;" parent="1" vertex="1">
          <mxGeometry x="367.74" y="992" width="60" height="30" as="geometry" />
        </mxCell>
        <mxCell id="T0GjzuPxUQXK1XWp5vqH-53" value="(0, n)" style="text;html=1;align=center;verticalAlign=middle;whiteSpace=wrap;rounded=0;labelBackgroundColor=none;" parent="1" vertex="1">
          <mxGeometry x="202.74" y="990.5" width="60" height="30" as="geometry" />
        </mxCell>
        <mxCell id="5OklQFgsDR4nSBkf5qA2-110" value="" style="shape=link;html=1;rounded=0;width=4.418604651162791;entryX=0.25;entryY=0;entryDx=0;entryDy=0;labelBackgroundColor=none;fontColor=default;exitX=0.5;exitY=1;exitDx=0;exitDy=0;" parent="1" source="5OklQFgsDR4nSBkf5qA2-112" target="T0GjzuPxUQXK1XWp5vqH-54" edge="1">
          <mxGeometry relative="1" as="geometry">
            <mxPoint x="92.74" y="510" as="sourcePoint" />
            <mxPoint x="202.74" y="510.0000000000001" as="targetPoint" />
            <Array as="points" />
          </mxGeometry>
        </mxCell>
        <mxCell id="5OklQFgsDR4nSBkf5qA2-111" value="" style="resizable=0;html=1;whiteSpace=wrap;align=right;verticalAlign=bottom;labelBackgroundColor=none;" parent="5OklQFgsDR4nSBkf5qA2-110" connectable="0" vertex="1">
          <mxGeometry x="1" relative="1" as="geometry" />
        </mxCell>
        <mxCell id="5OklQFgsDR4nSBkf5qA2-112" value="Rewards" style="ellipse;shape=doubleEllipse;margin=3;whiteSpace=wrap;html=1;align=center;labelBackgroundColor=none;" parent="1" vertex="1">
          <mxGeometry x="80" y="430.0000000000001" width="100" height="40" as="geometry" />
        </mxCell>
        <mxCell id="5OklQFgsDR4nSBkf5qA2-116" value="" style="endArrow=none;html=1;rounded=0;labelBackgroundColor=none;fontColor=default;entryX=0.188;entryY=1.001;entryDx=0;entryDy=0;entryPerimeter=0;" parent="1" target="PnlVqJtPfhtR3vDDbLsD-98" edge="1">
          <mxGeometry width="50" height="50" relative="1" as="geometry">
            <mxPoint x="239.66000000000003" y="450" as="sourcePoint" />
            <mxPoint x="240" y="390" as="targetPoint" />
          </mxGeometry>
        </mxCell>
        <mxCell id="T0GjzuPxUQXK1XWp5vqH-56" value="" style="endArrow=none;html=1;rounded=0;entryX=0;entryY=1;entryDx=0;entryDy=0;labelBackgroundColor=none;fontColor=default;" parent="1" edge="1">
          <mxGeometry width="50" height="50" relative="1" as="geometry">
            <mxPoint x="240" y="450" as="sourcePoint" />
            <mxPoint x="180" y="450" as="targetPoint" />
          </mxGeometry>
        </mxCell>
        <mxCell id="T0GjzuPxUQXK1XWp5vqH-65" value="" style="shape=link;html=1;rounded=0;entryX=0.5;entryY=1;entryDx=0;entryDy=0;exitX=0.684;exitY=-0.002;exitDx=0;exitDy=0;labelBackgroundColor=none;fontColor=default;exitPerimeter=0;" parent="1" target="T0GjzuPxUQXK1XWp5vqH-67" edge="1">
          <mxGeometry relative="1" as="geometry">
            <mxPoint x="319.44000000000005" y="259.91999999999996" as="sourcePoint" />
            <mxPoint x="320.35" y="212.32" as="targetPoint" />
          </mxGeometry>
        </mxCell>
        <mxCell id="T0GjzuPxUQXK1XWp5vqH-67" value="Gives" style="ellipse;shape=doubleEllipse;margin=3;whiteSpace=wrap;html=1;align=center;labelBackgroundColor=none;" parent="1" vertex="1">
          <mxGeometry x="270" y="170" width="100" height="40" as="geometry" />
        </mxCell>
        <mxCell id="5OklQFgsDR4nSBkf5qA2-128" value="" style="endArrow=none;html=1;rounded=0;labelBackgroundColor=none;fontColor=default;" parent="1" source="T0GjzuPxUQXK1XWp5vqH-67" edge="1">
          <mxGeometry width="50" height="50" relative="1" as="geometry">
            <mxPoint x="310" y="180" as="sourcePoint" />
            <mxPoint x="320" y="130" as="targetPoint" />
          </mxGeometry>
        </mxCell>
        <mxCell id="hF-KjkAvDpBelAWugECg-55" value="" style="endArrow=none;html=1;rounded=0;exitX=1.011;exitY=0.18;exitDx=0;exitDy=0;exitPerimeter=0;labelBackgroundColor=none;fontColor=default;" parent="1" edge="1">
          <mxGeometry width="50" height="50" relative="1" as="geometry">
            <mxPoint x="339.4999999999998" y="1019.8099999999998" as="sourcePoint" />
            <mxPoint x="437.74" y="1020.13" as="targetPoint" />
          </mxGeometry>
        </mxCell>
        <mxCell id="T0GjzuPxUQXK1XWp5vqH-71" value="(1, 1)" style="text;html=1;align=center;verticalAlign=middle;whiteSpace=wrap;rounded=0;labelBackgroundColor=none;" parent="1" vertex="1">
          <mxGeometry x="270" y="230" width="60" height="30" as="geometry" />
        </mxCell>
        <mxCell id="T0GjzuPxUQXK1XWp5vqH-72" value="(1, 1)" style="text;html=1;align=center;verticalAlign=middle;whiteSpace=wrap;rounded=0;labelBackgroundColor=none;" parent="1" vertex="1">
          <mxGeometry x="190" y="390" width="60" height="30" as="geometry" />
        </mxCell>
        <mxCell id="T0GjzuPxUQXK1XWp5vqH-73" value="(1, 1)" style="text;html=1;align=center;verticalAlign=middle;whiteSpace=wrap;rounded=0;labelBackgroundColor=none;" parent="1" vertex="1">
          <mxGeometry x="77.74" y="510" width="60" height="30" as="geometry" />
        </mxCell>
        <mxCell id="T0GjzuPxUQXK1XWp5vqH-78" value="" style="endArrow=none;html=1;rounded=0;exitX=0.5;exitY=0;exitDx=0;exitDy=0;" parent="1" source="T0GjzuPxUQXK1XWp5vqH-47" edge="1">
          <mxGeometry width="50" height="50" relative="1" as="geometry">
            <mxPoint x="692.04" y="1085" as="sourcePoint" />
            <mxPoint x="692.26" y="905" as="targetPoint" />
          </mxGeometry>
        </mxCell>
        <mxCell id="T0GjzuPxUQXK1XWp5vqH-80" value="" style="line;strokeWidth=1;rotatable=0;dashed=0;labelPosition=right;align=left;verticalAlign=middle;spacingTop=0;spacingLeft=6;points=[];portConstraint=eastwest;" parent="1" vertex="1">
          <mxGeometry x="197.74" y="1015" width="90" height="10" as="geometry" />
        </mxCell>
        <mxCell id="T0GjzuPxUQXK1XWp5vqH-81" value="Contains" style="ellipse;whiteSpace=wrap;html=1;align=center;labelBackgroundColor=none;" parent="1" vertex="1">
          <mxGeometry x="267.74" y="1000" width="100" height="40" as="geometry" />
        </mxCell>
        <mxCell id="5OklQFgsDR4nSBkf5qA2-139" value="Owns" style="ellipse;shape=doubleEllipse;margin=3;whiteSpace=wrap;html=1;align=center;" parent="1" vertex="1">
          <mxGeometry x="-750" y="520" width="100" height="40" as="geometry" />
        </mxCell>
        <mxCell id="T0GjzuPxUQXK1XWp5vqH-92" value="Manages" style="ellipse;whiteSpace=wrap;html=1;align=center;labelBackgroundColor=none;" parent="1" vertex="1">
          <mxGeometry x="-151.62" y="975" width="100" height="40" as="geometry" />
        </mxCell>
        <mxCell id="T0GjzuPxUQXK1XWp5vqH-93" value="" style="endArrow=none;html=1;rounded=0;entryX=-0.004;entryY=0.798;entryDx=0;entryDy=0;entryPerimeter=0;" parent="1" edge="1">
          <mxGeometry width="50" height="50" relative="1" as="geometry">
            <mxPoint x="-51.94" y="992.1" as="sourcePoint" />
            <mxPoint x="37.42000000000013" y="991.9999999999999" as="targetPoint" />
          </mxGeometry>
        </mxCell>
        <mxCell id="T0GjzuPxUQXK1XWp5vqH-97" value="(0, m)" style="text;html=1;align=center;verticalAlign=middle;whiteSpace=wrap;rounded=0;labelBackgroundColor=none;" parent="1" vertex="1">
          <mxGeometry x="-222.26" y="962" width="60" height="30" as="geometry" />
        </mxCell>
        <mxCell id="T0GjzuPxUQXK1XWp5vqH-98" value="(0, n)" style="text;html=1;align=center;verticalAlign=middle;whiteSpace=wrap;rounded=0;labelBackgroundColor=none;" parent="1" vertex="1">
          <mxGeometry x="-10.000000000000025" y="967" width="60" height="30" as="geometry" />
        </mxCell>
        <mxCell id="rDZKKN12-cH7OzcXxUJ9-8" value="" style="resizable=0;html=1;whiteSpace=wrap;align=right;verticalAlign=bottom;labelBackgroundColor=none;" parent="1" connectable="0" vertex="1">
          <mxGeometry x="584.0397110006265" y="229.99999950870108" as="geometry" />
        </mxCell>
        <mxCell id="hHDVhMUBLkY5xDZdk24u-6" value="" style="endArrow=none;html=1;rounded=0;exitX=0.75;exitY=0;exitDx=0;exitDy=0;" parent="1" edge="1">
          <mxGeometry width="50" height="50" relative="1" as="geometry">
            <mxPoint x="197.74" y="940" as="sourcePoint" />
            <mxPoint x="198" y="910" as="targetPoint" />
          </mxGeometry>
        </mxCell>
        <mxCell id="K7W3_5JvsaVnmijyw3qs-16" style="edgeStyle=orthogonalEdgeStyle;rounded=0;orthogonalLoop=1;jettySize=auto;html=1;exitX=-0.001;exitY=0.567;exitDx=0;exitDy=0;entryX=0.5;entryY=1;entryDx=0;entryDy=0;shape=link;exitPerimeter=0;" parent="1" target="5OklQFgsDR4nSBkf5qA2-139" edge="1">
          <mxGeometry relative="1" as="geometry">
            <mxPoint x="-382.90048" y="976.03" as="sourcePoint" />
            <mxPoint x="-703.1600000000001" y="800.1600000000001" as="targetPoint" />
          </mxGeometry>
        </mxCell>
        <mxCell id="RgGpu6aQiDU8sXOfKO7h-14" value="" style="endArrow=none;html=1;rounded=0;entryX=0.018;entryY=0.365;entryDx=0;entryDy=0;entryPerimeter=0;" parent="1" target="T0GjzuPxUQXK1XWp5vqH-92" edge="1">
          <mxGeometry width="50" height="50" relative="1" as="geometry">
            <mxPoint x="-221.62" y="990" as="sourcePoint" />
            <mxPoint x="-151.62" y="990" as="targetPoint" />
          </mxGeometry>
        </mxCell>
        <mxCell id="K7W3_5JvsaVnmijyw3qs-13" value="Contraintes" style="swimlane;childLayout=stackLayout;horizontal=1;startSize=50;horizontalStack=0;rounded=0;fontSize=14;fontStyle=0;strokeWidth=1;resizeParent=0;resizeLast=1;shadow=0;dashed=0;align=center;arcSize=4;whiteSpace=wrap;html=1;labelBackgroundColor=none;" parent="1" vertex="1">
          <mxGeometry x="490" y="40.5" width="460" height="469.5" as="geometry" />
        </mxCell>
        <mxCell id="K7W3_5JvsaVnmijyw3qs-14" value="&lt;div&gt;Deux personnages (Characters) ne peuvent pas avoir le mÃªme nom (Name).&lt;/div&gt;&lt;div&gt;&lt;br&gt;&lt;/div&gt;&lt;div&gt;Une table des rÃ©compenses (Looting Table) d&#39;un monstre peut Ãªtre vide.&lt;/div&gt;&lt;div&gt;&lt;br&gt;&lt;/div&gt;&lt;div&gt;m (nombre d&#39;emplacements de l&#39;inventaire) est liÃ© au niveau du joueur (Level).&lt;/div&gt;&lt;div&gt;&lt;div&gt;&lt;br&gt;&lt;/div&gt;&lt;div&gt;Un joueur ne peut pas collecter d&#39;objet (Item) si son inventaire (Inventory) est rempli.&lt;/div&gt;&lt;div&gt;&lt;br&gt;&lt;/div&gt;&lt;div&gt;Un joueur ne peut jeter/utiliser/vendre que les objets (Item) qu&#39;il possÃ¨de dans son inventaire (Inventory).&lt;/div&gt;&lt;div&gt;&lt;br&gt;&lt;/div&gt;&lt;div&gt;Un utilisateur ne peut acheter un objet (Item) que s&#39;il possÃ¨de suffisament d&#39;argent (Money) pour acheter l&#39;objet.&lt;/div&gt;&lt;div&gt;&lt;br&gt;&lt;/div&gt;&lt;div&gt;0 &amp;lt;= Intelligence &amp;lt;= 100&lt;/div&gt;&lt;div&gt;0 &amp;lt; Health &amp;lt;= 100&lt;/div&gt;&lt;div&gt;0 &amp;lt; MonsterHealth &amp;lt;= 1000&lt;/div&gt;&lt;div&gt;0 &amp;lt;= Damage&lt;/div&gt;&lt;div&gt;0 &amp;lt;= Mana&lt;/div&gt;&lt;div&gt;0 &amp;lt;= Defense &amp;lt;= 100&lt;/div&gt;&lt;div&gt;0% &amp;lt; Drop-rate &amp;lt;= 100%&lt;/div&gt;&lt;div&gt;0 &amp;lt; Quantity&lt;/div&gt;&lt;div&gt;0 &amp;lt; Price&lt;/div&gt;&lt;div&gt;0 &amp;lt;= Money&lt;/div&gt;&lt;div&gt;0 &amp;lt; Health gain &amp;lt;= 100&lt;/div&gt;&lt;div&gt;0 &amp;lt; Mana cost&lt;/div&gt;&lt;div&gt;0s &amp;lt; Reload time&lt;/div&gt;&lt;div&gt;0 &amp;lt;= XP&lt;/div&gt;&lt;div&gt;0 &amp;lt;= Level&lt;/div&gt;&lt;div&gt;&lt;br&gt;&lt;/div&gt;&lt;/div&gt;" style="align=left;strokeColor=none;fillColor=none;spacingLeft=4;spacingRight=4;fontSize=12;verticalAlign=top;resizable=0;rotatable=0;part=1;html=1;whiteSpace=wrap;labelBackgroundColor=none;" parent="K7W3_5JvsaVnmijyw3qs-13" vertex="1">
          <mxGeometry y="50" width="460" height="419.5" as="geometry" />
        </mxCell>
        <mxCell id="K7W3_5JvsaVnmijyw3qs-19" value="" style="endArrow=none;html=1;rounded=0;entryX=-0.018;entryY=0.868;entryDx=0;entryDy=0;exitX=1;exitY=0.5;exitDx=0;exitDy=0;entryPerimeter=0;" parent="1" target="PnlVqJtPfhtR3vDDbLsD-75" edge="1">
          <mxGeometry width="50" height="50" relative="1" as="geometry">
            <mxPoint x="-279.76" y="189.63999999999987" as="sourcePoint" />
            <mxPoint x="-210.24" y="189.89" as="targetPoint" />
          </mxGeometry>
        </mxCell>
        <mxCell id="K7W3_5JvsaVnmijyw3qs-20" value="(0, n)" style="text;html=1;align=center;verticalAlign=middle;whiteSpace=wrap;rounded=0;labelBackgroundColor=none;" parent="1" vertex="1">
          <mxGeometry x="-240.00000000000003" y="160" width="60" height="30" as="geometry" />
        </mxCell>
        <mxCell id="K7W3_5JvsaVnmijyw3qs-22" value="(1, 1)" style="text;html=1;align=center;verticalAlign=middle;whiteSpace=wrap;rounded=0;labelBackgroundColor=none;" parent="1" vertex="1">
          <mxGeometry x="-760" y="200" width="60" height="30" as="geometry" />
        </mxCell>
        <mxCell id="IOZRhiUU0VsJzaPUwcpm-1" value="" style="endArrow=none;html=1;rounded=0;entryX=0;entryY=0.5;entryDx=0;entryDy=0;exitX=1;exitY=0.5;exitDx=0;exitDy=0;" parent="1" target="T0GjzuPxUQXK1XWp5vqH-18" edge="1">
          <mxGeometry width="50" height="50" relative="1" as="geometry">
            <mxPoint x="-660" y="89.99999999999989" as="sourcePoint" />
            <mxPoint x="-590.48" y="90.25" as="targetPoint" />
          </mxGeometry>
        </mxCell>
        <mxCell id="IOZRhiUU0VsJzaPUwcpm-2" value="" style="endArrow=none;html=1;rounded=0;entryX=0.5;entryY=1;entryDx=0;entryDy=0;labelBackgroundColor=none;fontColor=default;exitX=0.5;exitY=0;exitDx=0;exitDy=0;" parent="1" source="5OklQFgsDR4nSBkf5qA2-139" edge="1">
          <mxGeometry width="50" height="50" relative="1" as="geometry">
            <mxPoint x="-700" y="510" as="sourcePoint" />
            <mxPoint x="-700.29" y="192.5" as="targetPoint" />
          </mxGeometry>
        </mxCell>
        <mxCell id="VxByWllZPocT8PmHnxEN-1" value="" style="endArrow=none;html=1;rounded=0;labelBackgroundColor=none;fontColor=default;exitX=0.688;exitY=0;exitDx=0;exitDy=0;exitPerimeter=0;" parent="1" source="PnlVqJtPfhtR3vDDbLsD-76" edge="1">
          <mxGeometry width="50" height="50" relative="1" as="geometry">
            <mxPoint x="147.74" y="810" as="sourcePoint" />
            <mxPoint x="147.74" y="780" as="targetPoint" />
          </mxGeometry>
        </mxCell>
        <mxCell id="VxByWllZPocT8PmHnxEN-14" value="" style="endArrow=none;html=1;rounded=0;exitX=0.5;exitY=0;exitDx=0;exitDy=0;entryX=0.171;entryY=0;entryDx=0;entryDy=0;entryPerimeter=0;" parent="1" source="PnlVqJtPfhtR3vDDbLsD-137" target="PnlVqJtPfhtR3vDDbLsD-142" edge="1">
          <mxGeometry width="50" height="50" relative="1" as="geometry">
            <mxPoint x="107.74000000000001" y="730" as="sourcePoint" />
            <mxPoint x="157.74" y="680" as="targetPoint" />
          </mxGeometry>
        </mxCell>
        <mxCell id="W-jNtS1RfY8JGD9w1sQn-1" value="Uses" style="ellipse;whiteSpace=wrap;html=1;align=center;labelBackgroundColor=none;" parent="1" vertex="1">
          <mxGeometry x="-189.26" y="480" width="100" height="40" as="geometry" />
        </mxCell>
        <mxCell id="yUgm7wOvWsq8yVaB9jCF-8" value="" style="endArrow=none;html=1;rounded=0;entryX=0;entryY=0.5;entryDx=0;entryDy=0;" parent="1" target="W-jNtS1RfY8JGD9w1sQn-1" edge="1">
          <mxGeometry width="50" height="50" relative="1" as="geometry">
            <mxPoint x="-310" y="500" as="sourcePoint" />
            <mxPoint x="-140" y="440" as="targetPoint" />
            <Array as="points">
              <mxPoint x="-190" y="500" />
            </Array>
          </mxGeometry>
        </mxCell>
        <mxCell id="W-jNtS1RfY8JGD9w1sQn-2" value="" style="endArrow=none;html=1;rounded=0;entryX=0;entryY=0;entryDx=0;entryDy=0;exitX=0.5;exitY=0;exitDx=0;exitDy=0;" parent="1" source="W-jNtS1RfY8JGD9w1sQn-1" target="W-jNtS1RfY8JGD9w1sQn-3" edge="1">
          <mxGeometry width="50" height="50" relative="1" as="geometry">
            <mxPoint x="-70" y="360" as="sourcePoint" />
            <mxPoint x="-20" y="310" as="targetPoint" />
          </mxGeometry>
        </mxCell>
        <mxCell id="yUgm7wOvWsq8yVaB9jCF-10" value="" style="endArrow=none;html=1;rounded=0;" parent="1" edge="1">
          <mxGeometry width="50" height="50" relative="1" as="geometry">
            <mxPoint x="-310" y="500" as="sourcePoint" />
            <mxPoint x="-310" y="920" as="targetPoint" />
            <Array as="points" />
          </mxGeometry>
        </mxCell>
        <mxCell id="yUgm7wOvWsq8yVaB9jCF-11" value="(1, n)" style="text;html=1;align=center;verticalAlign=middle;whiteSpace=wrap;rounded=0;labelBackgroundColor=none;" parent="1" vertex="1">
          <mxGeometry x="-310" y="875" width="60" height="30" as="geometry" />
        </mxCell>
        <mxCell id="W-jNtS1RfY8JGD9w1sQn-3" value="(1, 1)" style="text;html=1;align=center;verticalAlign=middle;whiteSpace=wrap;rounded=0;labelBackgroundColor=none;" parent="1" vertex="1">
          <mxGeometry x="-140" y="210" width="60" height="30" as="geometry" />
        </mxCell>
        <mxCell id="yUgm7wOvWsq8yVaB9jCF-13" value="" style="swimlane;childLayout=stackLayout;horizontal=1;startSize=0;horizontalStack=0;rounded=1;fontSize=14;fontStyle=0;strokeWidth=1;resizeParent=0;resizeLast=1;shadow=0;dashed=0;align=center;arcSize=0;whiteSpace=wrap;html=1;" parent="1" vertex="1">
          <mxGeometry x="-382.26" y="920" width="160" height="105" as="geometry" />
        </mxCell>
        <mxCell id="K7W3_5JvsaVnmijyw3qs-10" value="&lt;span style=&quot;font-size: 14px;&quot;&gt;Inventories&lt;/span&gt;" style="shape=ext;margin=3;double=1;whiteSpace=wrap;html=1;align=center;" parent="yUgm7wOvWsq8yVaB9jCF-13" vertex="1">
          <mxGeometry width="160" height="40" as="geometry" />
        </mxCell>
        <mxCell id="yUgm7wOvWsq8yVaB9jCF-14" value="&lt;div&gt;&lt;div&gt;&lt;br&gt;&lt;/div&gt;&lt;div&gt;&lt;span style=&quot;text-wrap-mode: nowrap;&quot;&gt;&lt;br&gt;&lt;/span&gt;&lt;/div&gt;&lt;div&gt;&lt;span style=&quot;text-wrap-mode: nowrap;&quot;&gt;ðŸ”‘ ID&lt;/span&gt;&lt;/div&gt;&lt;/div&gt;&lt;div&gt;&lt;span style=&quot;text-wrap-mode: nowrap;&quot;&gt;&lt;br&gt;&lt;/span&gt;&lt;/div&gt;" style="align=left;strokeColor=none;fillColor=none;spacingLeft=4;spacingRight=4;fontSize=12;verticalAlign=top;resizable=0;rotatable=0;part=1;html=1;whiteSpace=wrap;" parent="yUgm7wOvWsq8yVaB9jCF-13" vertex="1">
          <mxGeometry y="40" width="160" height="65" as="geometry" />
        </mxCell>
        <mxCell id="yUgm7wOvWsq8yVaB9jCF-15" value="" style="endArrow=none;html=1;rounded=0;exitX=1.002;exitY=0.318;exitDx=0;exitDy=0;exitPerimeter=0;entryX=-0.004;entryY=0.316;entryDx=0;entryDy=0;entryPerimeter=0;" parent="yUgm7wOvWsq8yVaB9jCF-13" source="yUgm7wOvWsq8yVaB9jCF-14" target="yUgm7wOvWsq8yVaB9jCF-14" edge="1">
          <mxGeometry width="50" height="50" relative="1" as="geometry">
            <mxPoint x="-67" y="85" as="sourcePoint" />
            <mxPoint x="2.259999999999991" y="60" as="targetPoint" />
          </mxGeometry>
        </mxCell>
      </root>
    </mxGraphModel>
  </diagram>
</mxfile>
